<?xml version="1.0" encoding="UTF-8"?>
<svg width="5800px" height="1071px" viewBox="0 0 5800 1071" version="1.1" xmlns="http://www.w3.org/2000/svg" xmlns:xlink="http://www.w3.org/1999/xlink">
  <g stroke="#000" stroke-width="40" stroke-linecap="round" stroke-linejoin="round" fill="none">
    <polygon points="553 468.6208 1000.2832 248.8704 553 45.1968 105.7168 248.8704"></polygon>
    <polygon points="516.0336 533.44 60.8656 304.6784 108.7888 768.8576 519.6176 1025.2672"></polygon>
    <polygon points="589.9664 533.44 1045.1344 304.6784 997.2112 768.8576 586.3824 1025.2672"></polygon>
    <path d="M1489.768,979.3105 C1524.674,979.3105 1554.65375,976.026333 1579.70725,969.458 C1604.76075,962.889667 1626.2955,955.6645 1644.3115,947.7825 L1644.3115,947.7825 L1622.073,832.649 C1607.435,838.466667 1590.545,843.48675 1571.403,847.70925 C1552.261,851.93175 1532.36833,854.043 1511.725,854.043 C1487.14067,854.043 1467.57642,849.539 1453.03225,840.531 C1438.48808,831.523 1428.07258,817.682583 1421.78575,799.00975 C1415.49892,780.336917 1412.3555,757.113167 1412.3555,729.3385 L1412.3555,729.3385 L1412.3555,498.5085 L1620.6655,498.5085 L1620.6655,376.056 L1412.3555,376.056 L1412.3555,199.274 L1265.4125,223.2015 L1265.4125,729.3385 C1265.4125,780.5715 1271.93392,824.860833 1284.97675,862.2065 C1298.01958,899.552167 1320.91492,928.405917 1353.66275,948.76775 C1386.41058,969.129583 1431.779,979.3105 1489.768,979.3105 Z M2016.4545,980.9995 C2057.74117,980.9995 2096.9635,977.011583 2134.1215,969.03575 C2171.2795,961.059917 2197.92817,952.943333 2214.0675,944.686 L2214.0675,944.686 L2193.518,824.767 C2176.81567,832.273667 2154.29567,839.029667 2125.958,845.035 C2097.62033,851.040333 2067.1245,854.043 2034.4705,854.043 C1981.17317,854.043 1939.74575,841.891583 1910.18825,817.58875 C1880.63075,793.285917 1864.06917,759.928167 1860.5035,717.5155 L1860.5035,717.5155 L2247.566,717.5155 C2248.31667,709.258167 2249.02042,699.874833 2249.67725,689.3655 C2250.33408,678.856167 2250.6625,669.285167 2250.6625,660.6525 C2250.6625,594.2185 2239.91858,538.809917 2218.43075,494.42675 C2196.94292,450.043583 2166.54092,416.685833 2127.22475,394.3535 C2087.90858,372.021167 2041.03883,360.855 1986.6155,360.855 C1939.69883,360.855 1895.128,372.53725 1852.903,395.90175 C1810.678,419.26625 1776.19425,454.17225 1749.45175,500.61975 C1722.70925,547.06725 1709.338,605.009333 1709.338,674.446 C1709.338,732.435 1720.26958,784.606333 1742.13275,830.96 C1763.99592,877.313667 1797.54133,913.908667 1842.769,940.745 C1887.99667,967.581333 1945.89183,980.9995 2016.4545,980.9995 Z M2107.6605,614.205 L1861.0665,614.205 C1863.8815,591.497333 1870.12142,570.197167 1879.78625,550.3045 C1889.45108,530.411833 1903.15075,514.225583 1920.88525,501.74575 C1938.61975,489.265917 1961.18667,483.026 1988.586,483.026 C2015.79767,483.026 2037.94233,489.07825 2055.02,501.18275 C2072.09767,513.28725 2084.95283,529.238917 2093.5855,549.03775 C2102.21817,568.836583 2106.90983,590.559 2107.6605,614.205 L2107.6605,614.205 Z M2659.119,980.9995 C2693.462,980.9995 2725.2715,977.903 2754.5475,971.71 C2783.8235,965.517 2807.56333,958.385667 2825.767,950.316 L2825.767,950.316 L2803.81,829.271 C2786.54467,836.777667 2766.41742,842.783 2743.42825,847.287 C2720.43908,851.791 2697.6845,854.043 2675.1645,854.043 C2634.6285,854.043 2602.02142,846.724 2577.34325,832.086 C2552.66508,817.448 2534.9775,796.429333 2524.2805,769.03 C2513.5835,741.630667 2508.235,709.0705 2508.235,671.3495 C2508.235,615.424833 2521.4655,570.854 2547.9265,537.637 C2574.3875,504.42 2613.98517,487.8115 2666.7195,487.8115 C2691.86683,487.8115 2713.82383,490.0635 2732.5905,494.5675 C2751.35717,499.0715 2768.52867,504.42 2784.105,510.613 L2784.105,510.613 L2815.633,392.383 C2793.113,382.436667 2768.52867,374.695417 2741.88,369.15925 C2715.23133,363.623083 2686.23683,360.855 2654.8965,360.855 C2592.9665,360.855 2539.85683,374.6485 2495.5675,402.2355 C2451.27817,429.8225 2417.26358,467.074333 2393.52375,513.991 C2369.78392,560.907667 2357.914,613.3605 2357.914,671.3495 C2357.914,730.276833 2368.56408,783.058083 2389.86425,829.69325 C2411.16442,876.328417 2444.00608,913.204917 2488.38925,940.32275 C2532.77242,967.440583 2589.68233,980.9995 2659.119,980.9995 Z M3098.5405,981.281 C3150.71183,981.281 3195.04808,974.712667 3231.54925,961.576 C3268.05042,948.439333 3295.872,928.968917 3315.014,903.16475 C3334.156,877.360583 3343.727,845.410333 3343.727,807.314 C3343.727,773.534 3337.8155,745.337083 3325.9925,722.72325 C3314.1695,700.109417 3295.0275,680.310583 3268.5665,663.32675 C3242.1055,646.342917 3206.26117,629.499833 3161.0335,612.7975 C3135.32317,603.2265 3115.24283,594.687667 3100.7925,587.181 C3086.34217,579.674333 3076.20817,571.6985 3070.3905,563.2535 C3064.57283,554.8085 3061.664,544.956 3061.664,533.696 C3061.664,515.304667 3069.49908,501.792667 3085.16925,493.16 C3100.83942,484.527333 3122.468,480.211 3150.055,480.211 C3181.39533,480.211 3208.37242,483.072917 3230.98625,488.79675 C3253.60008,494.520583 3273.44583,500.572833 3290.5235,506.9535 L3290.5235,506.9535 L3317.266,390.694 C3299.813,383.750333 3275.3225,377.04125 3243.7945,370.56675 C3212.2665,364.09225 3178.11117,360.855 3141.3285,360.855 C3094.78717,360.855 3054.76725,368.03325 3021.26875,382.38975 C2987.77025,396.74625 2961.91917,416.920417 2943.7155,442.91225 C2925.51183,468.904083 2916.41,500.009833 2916.41,536.2295 C2916.41,573.199833 2923.68208,603.179583 2938.22625,626.16875 C2952.77042,649.157917 2972.9915,667.9715 2998.8895,682.6095 C3024.7875,697.2475 3054.345,711.134833 3087.562,724.2715 C3113.08467,733.8425 3133.82183,742.756667 3149.7735,751.014 C3165.72517,759.271333 3177.642,767.6225 3185.524,776.0675 C3193.406,784.5125 3197.347,794.6465 3197.347,806.4695 C3197.347,827.3005 3189.37117,841.563167 3173.4195,849.2575 C3157.46783,856.951833 3132.78967,860.799 3099.385,860.799 C3066.54333,860.799 3035.67217,857.186417 3006.7715,849.96125 C2977.87083,842.736083 2951.69133,834.525667 2928.233,825.33 L2928.233,825.33 L2902.0535,946.0935 C2914.62717,951.7235 2937.5225,958.995583 2970.7395,967.90975 C3003.9565,976.823917 3046.55683,981.281 3098.5405,981.281 Z M3619.3155,966.08 L3619.3155,496.8195 C3626.25917,495.318167 3633.85967,494.0045 3642.117,492.8785 C3650.37433,491.7525 3659.52308,490.814167 3669.56325,490.0635 C3679.60342,489.312833 3689.87817,488.9375 3700.3875,488.9375 C3727.22383,488.9375 3748.19558,494.5675 3763.30275,505.8275 C3778.40992,517.0875 3789.06,534.868917 3795.253,559.17175 C3801.446,583.474583 3804.5425,615.331 3804.5425,654.741 L3804.5425,654.741 L3804.5425,966.08 L3951.4855,966.08 L3951.4855,641.229 C3951.4855,618.333667 3950.50025,596.705083 3948.52975,576.34325 C3946.55925,555.981417 3942.759,536.980167 3937.129,519.3395 C3944.26033,514.8355 3953.12758,510.143833 3963.73075,505.2645 C3974.33392,500.385167 3985.73467,496.444167 3997.933,493.4415 C4010.13133,490.438833 4021.95433,488.9375 4033.402,488.9375 C4059.863,488.9375 4080.60017,494.5675 4095.6135,505.8275 C4110.62683,517.0875 4121.23,534.868917 4127.423,559.17175 C4133.616,583.474583 4136.7125,615.331 4136.7125,654.741 L4136.7125,654.741 L4136.7125,966.08 L4283.6555,966.08 L4283.6555,633.6285 C4283.6555,579.955833 4277.41558,532.898417 4264.93575,492.45625 C4252.45592,452.014083 4229.6075,420.345333 4196.3905,397.45 C4163.1735,374.554667 4115.41233,363.107 4053.107,363.107 C4031.713,363.107 4010.08442,365.828167 3988.22125,371.2705 C3966.35808,376.712833 3946.09008,383.6565 3927.41725,392.1015 C3908.74442,400.5465 3892.3705,409.929833 3878.2955,420.2515 C3861.21783,403.736833 3839.35467,390.084083 3812.706,379.29325 C3786.05733,368.502417 3751.99583,363.107 3710.5215,363.107 C3664.54317,363.107 3620.30075,366.719583 3577.79425,373.94475 C3535.28775,381.169917 3500.14717,388.629667 3472.3725,396.324 L3472.3725,396.324 L3472.3725,966.08 L3619.3155,966.08 Z M4517.019,270.212 C4541.791,270.212 4562.99733,262.142333 4580.638,246.003 C4598.27867,229.863667 4607.099,207.906667 4607.099,180.132 C4607.099,152.357333 4598.27867,130.588 4580.638,114.824 C4562.99733,99.06 4541.791,91.178 4517.019,91.178 C4492.247,91.178 4471.04067,99.06 4453.4,114.824 C4435.75933,130.588 4426.939,152.357333 4426.939,180.132 C4426.939,207.906667 4435.75933,229.863667 4453.4,246.003 C4471.04067,262.142333 4492.247,270.212 4517.019,270.212 Z M4590.209,966.08 L4590.209,376.056 L4443.829,376.056 L4443.829,966.08 L4590.209,966.08 Z M4974.738,979.3105 C5009.644,979.3105 5039.62375,976.026333 5064.67725,969.458 C5089.73075,962.889667 5111.2655,955.6645 5129.2815,947.7825 L5129.2815,947.7825 L5107.043,832.649 C5092.405,838.466667 5075.515,843.48675 5056.373,847.70925 C5037.231,851.93175 5017.33833,854.043 4996.695,854.043 C4972.11067,854.043 4952.54642,849.539 4938.00225,840.531 C4923.45808,831.523 4913.04258,817.682583 4906.75575,799.00975 C4900.46892,780.336917 4897.3255,757.113167 4897.3255,729.3385 L4897.3255,729.3385 L4897.3255,498.5085 L5105.6355,498.5085 L5105.6355,376.056 L4897.3255,376.056 L4897.3255,199.274 L4750.3825,223.2015 L4750.3825,729.3385 C4750.3825,780.5715 4756.90392,824.860833 4769.94675,862.2065 C4782.98958,899.552167 4805.88492,928.405917 4838.63275,948.76775 C4871.38058,969.129583 4916.749,979.3105 4974.738,979.3105 Z M5388.2615,966.08 L5388.2615,504.191281 C5395.20517,502.09176 5403.41558,499.869083 5412.89275,497.52325 C5422.36992,495.177417 5432.92617,493.16 5444.5615,491.471 C5456.19683,489.782 5467.56826,488.9375 5478.67578,488.9375 C5508.29193,488.9375 5531.29869,494.403292 5547.69606,505.334875 C5564.09344,516.266458 5575.72877,533.813292 5582.60206,557.975375 C5589.47535,582.137458 5592.912,614.392667 5592.912,654.741 L5592.912,654.741 L5592.912,966.08 L5739.855,966.08 L5739.855,633.6285 C5739.855,579.826813 5732.58292,532.655036 5718.03875,492.113172 C5703.49458,451.571307 5678.53492,419.934813 5643.15975,397.203688 C5607.78458,374.472563 5558.19367,363.107 5494.387,363.107 C5476.03085,363.107 5457.22607,364.93675 5437.97264,368.59625 C5418.71921,372.25575 5402.14883,376.525167 5388.2615,381.4045 L5388.2615,381.4045 L5388.2615,92.304 L5241.3185,116.2315 L5241.3185,966.08 L5388.2615,966.08 Z"></path>
  </g>
</svg>
